<?xml version="1.0" encoding="iso-8859-1"?>
<!-- Generator: Adobe Illustrator 19.0.0, SVG Export Plug-In . SVG Version: 6.00 Build 0)  -->
<svg version="1.1" id="Capa_1" xmlns="http://www.w3.org/2000/svg" xmlns:xlink="http://www.w3.org/1999/xlink" x="0px" y="0px"
	 viewBox="0 0 512 512" style="enable-background:new 0 0 512 512;" xml:space="preserve">
<rect x="44.02" y="362.54" style="fill:#FFDB0C;" width="81.78" height="108.31"/>
<rect x="158.08" y="247.42" style="fill:#FFA900;" width="81.78" height="223.43"/>
<rect x="386.2" y="167.72" style="fill:#DE0418;" width="81.78" height="303.13"/>
<rect x="272.14" y="296.47" style="fill:#FF6536;" width="81.78" height="174.39"/>
<rect y="455.85" style="fill:#808080;" width="512" height="30"/>
<rect x="256" y="455.85" style="fill:#666666;" width="256" height="30"/>
<g>
	
		<rect x="126.944" y="122.38" transform="matrix(-0.7104 -0.7038 0.7038 -0.7104 99.6216 447.8122)" style="fill:#333333;" width="30" height="162.06"/>
	
		<rect x="193.93" y="155.369" transform="matrix(-0.9187 -0.395 0.395 -0.9187 423.9098 428.0067)" style="fill:#333333;" width="124.162" height="30.001"/>
	
		<rect x="355.064" y="44.511" transform="matrix(-0.7485 -0.6631 0.6631 -0.7485 560.5194 473.5928)" style="fill:#333333;" width="29.999" height="171.996"/>
</g>
<circle style="fill:#E6E6E6;" cx="84.91" cy="260.97" r="40"/>
<circle style="fill:#B3B3B3;" cx="198.97" cy="145.85" r="40"/>
<circle style="fill:#4D4D4D;" cx="427.09" cy="66.15" r="40"/>
<circle style="fill:#808080;" cx="313.03" cy="194.89" r="40"/>
<g>
</g>
<g>
</g>
<g>
</g>
<g>
</g>
<g>
</g>
<g>
</g>
<g>
</g>
<g>
</g>
<g>
</g>
<g>
</g>
<g>
</g>
<g>
</g>
<g>
</g>
<g>
</g>
<g>
</g>
</svg>
